<?xml version="1.0" encoding="UTF-8"?>
<svg id="Ebene_1" data-name="Ebene 1" xmlns="http://www.w3.org/2000/svg" xmlns:xlink="http://www.w3.org/1999/xlink" viewBox="0 0 264.58 87.08">
  <defs>
    <style>
      .cls-1 {
        clip-path: url(#clippath);
      }

      .cls-2 {
        fill: none;
      }

      .cls-2, .cls-3 {
        stroke-width: 0px;
      }

      .cls-3 {
        fill: #1d1d1b;
      }
    </style>
    <clipPath id="clippath">
      <rect class="cls-2" width="264.58" height="87.08"/>
    </clipPath>
  </defs>
  <g class="cls-1">
    <path class="cls-3" d="M78.61,46.94l-5.88,2.41.37.75c.57-.23,1.05-.35,1.42-.35.34,0,.63.09.85.28.22.19.38.53.48,1.05.1.51.15,1.88.15,4.1v17.92c0,1.22-.09,2.05-.28,2.48-.19.43-.44.74-.77.93-.33.19-.95.28-1.85.28v.78h9.67v-.78c-1.02,0-1.72-.1-2.09-.31-.37-.21-.65-.51-.83-.91-.18-.4-.27-1.22-.27-2.45v-26.17h-.97ZM64.14,78.06c2.21.06,3.69.24,4.44.56.73.32,1.1.85,1.1,1.59,0,1.03-.61,2.01-1.84,2.92-1.23.91-3.13,1.37-5.72,1.37-2.71,0-4.79-.44-6.23-1.33-.83-.52-1.25-1.12-1.25-1.81,0-.53.17-1.11.52-1.74.35-.63.85-1.31,1.53-2.05,1.74.24,4.22.41,7.45.49M63.47,59.71c.99,1.29,1.49,3.08,1.49,5.36,0,1.75-.35,3.04-1.06,3.85-.7.82-1.6,1.23-2.69,1.23-1.15,0-2.1-.47-2.84-1.42-.98-1.25-1.46-3.01-1.46-5.28,0-1.75.36-3.05,1.08-3.9.72-.85,1.61-1.27,2.67-1.27,1.15,0,2.09.47,2.82,1.42M54.07,73.23c-.41.67-.61,1.26-.61,1.77,0,.45.15.84.46,1.2.31.35.84.75,1.58,1.2-1.37,1.42-2.1,2.2-2.2,2.33-.76.95-1.26,1.69-1.51,2.22-.16.35-.24.69-.24,1.03,0,.78.54,1.52,1.62,2.24,1.91,1.25,4.25,1.87,7.02,1.87,3.6,0,6.53-1.05,8.77-3.14,1.52-1.42,2.28-2.94,2.28-4.57,0-1.18-.4-2.17-1.2-2.97-.8-.8-1.86-1.3-3.2-1.49-.88-.13-2.79-.23-5.75-.3-1.61-.04-2.61-.09-3.01-.15-.69-.1-1.15-.26-1.39-.49-.24-.23-.35-.47-.35-.71,0-.29.11-.64.33-1.04.22-.41.65-.89,1.28-1.43,1.02.29,2.02.43,2.99.43,2.37,0,4.26-.65,5.66-1.96,1.41-1.31,2.11-2.88,2.11-4.72,0-1.61-.4-2.93-1.21-3.96h2.56c.62,0,.98-.02,1.09-.07.11-.04.18-.1.23-.17.07-.14.11-.4.11-.78,0-.33-.04-.56-.13-.69-.04-.09-.11-.15-.22-.18-.1-.03-.46-.05-1.08-.05h-4.18c-1.38-.92-3.01-1.38-4.89-1.38-2.3,0-4.18.7-5.65,2.11-1.47,1.41-2.21,3.09-2.21,5.04,0,1.28.32,2.44.97,3.5.65,1.06,1.57,1.88,2.78,2.47-1.48,1.23-2.42,2.19-2.83,2.86M39.8,75.47c-.8,0-1.51-.34-2.13-1.02-.62-.68-.93-1.54-.93-2.57,0-.82.24-1.57.73-2.26.49-.69,1.3-1.35,2.43-1.98.63-.36,2.03-.97,4.2-1.83v7.52c-1.78,1.44-3.22,2.15-4.31,2.15M44.76,77.22c.42.49.98.73,1.68.73,1.46,0,3-1.08,4.61-3.23v-1.21c-.86.86-1.44,1.39-1.74,1.57-.17.1-.37.15-.6.15-.22,0-.41-.07-.57-.22-.17-.14-.28-.43-.35-.85-.07-.42-.11-1.58-.11-3.46v-6.7c0-1.91-.13-3.17-.39-3.79-.4-.95-1.03-1.64-1.87-2.09-1.12-.59-2.56-.88-4.31-.88-2.28,0-4.06.52-5.32,1.55-1.26,1.03-1.9,2.17-1.9,3.4,0,.65.17,1.16.51,1.53.34.37.77.56,1.3.56s.99-.18,1.33-.54c.34-.36.51-.87.51-1.53l-.04-1.25c0-.63.27-1.19.82-1.68.53-.49,1.25-.73,2.15-.73,1.19,0,2.1.37,2.72,1.1.62.73.94,2.08.94,4.05v.78c-3.39,1.24-5.81,2.28-7.27,3.14-1.46.86-2.48,1.78-3.07,2.76-.43.7-.65,1.54-.65,2.5,0,1.52.44,2.75,1.33,3.68.88.93,2.01,1.4,3.37,1.4.88,0,1.7-.18,2.48-.54.52-.24,1.79-1.15,3.81-2.71.01,1.18.23,2.01.65,2.5M0,49.15c.85,0,1.48.06,1.89.19.85.27,1.49.57,1.93.88.44.32,1.08.97,1.93,1.96v20.31c0,1.64-.16,2.68-.47,3.14-.52.75-1.4,1.12-2.65,1.12h-1.01v.8h10.17v-.8h-1.03c-1.13,0-1.97-.3-2.52-.91-.39-.44-.58-1.56-.58-3.36v-17.98l19.25,23.52h.78v-24.62c0-1.64.16-2.68.47-3.14.52-.75,1.39-1.12,2.63-1.12h1.03v-.8h-10.17v.8h1.01c1.15,0,1.99.3,2.52.9.4.44.6,1.57.6,3.36v16.84L7.93,48.36H0v.8Z"/>
    <path class="cls-3" d="M63.35,4.53h-.41l-2.61,1.06.14.34c.25-.1.46-.14.63-.14.16,0,.3.04.39.12.1.08.17.24.22.46s.07.86.07,1.9v3.22c0,.63-.08,1.06-.23,1.28-.15.22-.45.34-.89.34h-.19v.34h4.28v-.34c-.47,0-.79-.04-.94-.13-.15-.08-.28-.22-.36-.4-.07-.14-.1-.5-.1-1.09v-4.57c.74-.82,1.49-1.23,2.24-1.23.49,0,.83.18,1.04.53s.31.93.31,1.72v3.55c0,.5-.01.79-.04.89-.06.24-.17.42-.33.54-.16.12-.44.19-.85.19h-.18v.34h4.28v-.34c-.42,0-.7-.04-.85-.13-.15-.09-.27-.21-.34-.37-.09-.2-.13-.57-.13-1.12v-3.7c0-.78-.07-1.36-.21-1.74-.2-.54-.47-.93-.81-1.17-.34-.24-.75-.35-1.22-.35-.92,0-1.89.61-2.9,1.83v-1.83ZM58.01,4.53l-2.61,1.06.13.34c.25-.1.47-.14.64-.14.16,0,.29.04.39.12.09.08.16.22.21.42.06.28.08.89.08,1.83v3.34c0,.54-.04.9-.13,1.09-.09.19-.2.32-.35.41s-.43.12-.85.12v.34h4.21v-.34c-.41,0-.69-.04-.85-.13-.15-.09-.27-.22-.35-.4-.08-.18-.12-.54-.12-1.08v-6.96h-.42ZM56.96.28c-.19.19-.28.41-.28.68s.1.49.28.68c.19.19.42.28.68.28s.49-.09.68-.28c.19-.19.28-.42.28-.68s-.09-.49-.28-.68c-.19-.19-.41-.28-.68-.28s-.5.09-.69.28M47.63,29.96c-.47.46-.7,1.03-.7,1.7s.23,1.22.7,1.69c.47.47,1.03.7,1.69.7s1.22-.23,1.69-.7c.47-.47.7-1.03.7-1.69s-.23-1.22-.69-1.69c-.46-.47-1.03-.7-1.7-.7s-1.23.23-1.69.69M38.68,13.14l-5.97,2.41.22.78c.56-.22,1.06-.32,1.51-.32.37,0,.69.1.94.3.25.2.42.52.52.96.09.44.14,1.81.14,4.1v7.65c0,1.15-.04,1.85-.11,2.09-.14.5-.4.87-.75,1.1-.49.32-1.24.47-2.24.47v.78h10.1v-.78c-.89,0-1.57-.13-2.05-.39-.47-.26-.81-.58-.99-.97-.27-.56-.41-1.39-.41-2.48v-9.45c.69-1.35,1.36-2.32,2-2.91.3-.29.58-.43.84-.43.3,0,.76.25,1.39.74.62.5,1.19.74,1.69.74s.96-.19,1.34-.58c.37-.39.56-.86.56-1.42,0-.63-.26-1.19-.77-1.67-.52-.48-1.17-.72-1.96-.72-1.74,0-3.43,1.48-5.08,4.44v-4.44h-.9ZM9.67,6.51c1.65-.42,3.12-.62,4.41-.62,3.45,0,6.27,1.16,8.46,3.49,2.2,2.33,3.3,5.51,3.3,9.54s-1.1,7.18-3.3,9.52c-2.2,2.34-4.96,3.51-8.29,3.51-1.24,0-2.76-.2-4.59-.6V6.51ZM14.39,33.45c5.67,0,9.89-1.52,12.66-4.57,2.47-2.73,3.7-6.12,3.7-10.19,0-3.03-.69-5.7-2.08-8.01-1.39-2.31-3.22-3.96-5.49-4.95-2.28-.99-5.6-1.49-9.96-1.49H1.34v.8h1.1c1.11,0,1.94.32,2.5.95.4.46.6,1.6.6,3.42v18.87c0,1.65-.16,2.71-.47,3.19-.52.79-1.39,1.18-2.63,1.18h-1.1v.8h13.05Z"/>
    <path class="cls-3" d="M260.43,46.94l-5.88,2.41.37.75c.57-.23,1.05-.35,1.42-.35.35,0,.63.09.85.28.22.19.38.53.48,1.05.1.51.15,1.88.15,4.1v17.92c0,1.22-.09,2.05-.28,2.48-.19.43-.45.74-.77.93-.33.19-.95.28-1.85.28v.78h9.67v-.78c-1.02,0-1.72-.1-2.09-.31-.37-.21-.65-.51-.83-.91-.18-.4-.27-1.22-.27-2.45v-26.17h-.97ZM245.95,78.06c2.21.06,3.69.24,4.44.56.73.32,1.1.85,1.1,1.59,0,1.03-.61,2.01-1.84,2.92-1.23.91-3.13,1.37-5.72,1.37-2.71,0-4.79-.44-6.23-1.33-.83-.52-1.25-1.12-1.25-1.81,0-.53.17-1.11.52-1.74.35-.63.85-1.31,1.53-2.05,1.74.24,4.22.41,7.45.49M245.29,59.71c.99,1.29,1.49,3.08,1.49,5.36,0,1.75-.35,3.04-1.06,3.85-.7.82-1.6,1.23-2.69,1.23-1.15,0-2.1-.47-2.84-1.42-.98-1.25-1.46-3.01-1.46-5.28,0-1.75.36-3.05,1.08-3.9.72-.85,1.61-1.27,2.67-1.27,1.15,0,2.09.47,2.82,1.42M235.88,73.23c-.41.67-.61,1.26-.61,1.77,0,.45.15.84.46,1.2.31.35.84.75,1.58,1.2-1.36,1.42-2.1,2.2-2.2,2.33-.76.95-1.26,1.69-1.51,2.22-.16.35-.24.69-.24,1.03,0,.78.54,1.52,1.62,2.24,1.91,1.25,4.25,1.87,7.02,1.87,3.6,0,6.53-1.05,8.77-3.14,1.52-1.42,2.28-2.94,2.28-4.57,0-1.18-.4-2.17-1.2-2.97-.8-.8-1.86-1.3-3.2-1.49-.88-.13-2.79-.23-5.75-.3-1.61-.04-2.61-.09-3.01-.15-.69-.1-1.15-.26-1.39-.49-.24-.23-.36-.47-.36-.71,0-.29.11-.64.33-1.04.22-.41.65-.89,1.28-1.43,1.02.29,2.02.43,2.99.43,2.37,0,4.26-.65,5.66-1.96,1.41-1.31,2.11-2.88,2.11-4.72,0-1.61-.4-2.93-1.21-3.96h2.56c.62,0,.98-.02,1.09-.07.11-.04.18-.1.23-.17.07-.14.11-.4.11-.78,0-.33-.04-.56-.13-.69-.04-.09-.12-.15-.22-.18-.1-.03-.46-.05-1.08-.05h-4.18c-1.38-.92-3.01-1.38-4.89-1.38-2.3,0-4.18.7-5.65,2.11-1.47,1.41-2.21,3.09-2.21,5.04,0,1.28.32,2.44.97,3.5.65,1.06,1.57,1.88,2.78,2.47-1.48,1.23-2.42,2.19-2.83,2.86M221.62,75.47c-.8,0-1.51-.34-2.13-1.02-.62-.68-.93-1.54-.93-2.57,0-.82.24-1.57.73-2.26.49-.69,1.3-1.35,2.43-1.98.63-.36,2.03-.97,4.2-1.83v7.52c-1.78,1.44-3.22,2.15-4.31,2.15M226.57,77.22c.42.49.98.73,1.68.73,1.46,0,3-1.08,4.61-3.23v-1.21c-.86.86-1.44,1.39-1.74,1.57-.17.1-.37.15-.6.15-.21,0-.41-.07-.57-.22-.17-.14-.28-.43-.36-.85-.07-.42-.11-1.58-.11-3.46v-6.7c0-1.91-.13-3.17-.39-3.79-.4-.95-1.03-1.64-1.87-2.09-1.12-.59-2.56-.88-4.31-.88-2.28,0-4.06.52-5.32,1.55-1.26,1.03-1.9,2.17-1.9,3.4,0,.65.17,1.16.51,1.53.34.37.77.56,1.3.56s.99-.18,1.32-.54c.34-.36.51-.87.51-1.53l-.04-1.25c0-.63.27-1.19.82-1.68.53-.49,1.25-.73,2.15-.73,1.19,0,2.1.37,2.73,1.1.62.73.94,2.08.94,4.05v.78c-3.39,1.24-5.81,2.28-7.27,3.14-1.46.86-2.48,1.78-3.07,2.76-.43.7-.65,1.54-.65,2.5,0,1.52.44,2.75,1.32,3.68.88.93,2.01,1.4,3.37,1.4.88,0,1.7-.18,2.48-.54.52-.24,1.79-1.15,3.81-2.71.01,1.18.23,2.01.65,2.5M181.81,49.15c.85,0,1.48.06,1.9.19.85.27,1.49.57,1.93.88.44.32,1.08.97,1.93,1.96v20.31c0,1.64-.16,2.68-.47,3.14-.52.75-1.4,1.12-2.65,1.12h-1.01v.8h10.17v-.8h-1.03c-1.13,0-1.97-.3-2.52-.91-.39-.44-.58-1.56-.58-3.36v-17.98l19.25,23.52h.78v-24.62c0-1.64.16-2.68.47-3.14.52-.75,1.39-1.12,2.63-1.12h1.03v-.8h-10.17v.8h1.01c1.15,0,1.99.3,2.52.9.4.44.6,1.57.6,3.36v16.84l-17.85-21.9h-7.93v.8Z"/>
    <path class="cls-3" d="M229.44,29.96c-.47.46-.7,1.03-.7,1.7s.23,1.22.7,1.69c.47.47,1.03.7,1.69.7s1.22-.23,1.69-.7c.47-.47.7-1.03.7-1.69s-.23-1.22-.69-1.69c-.46-.47-1.03-.7-1.7-.7s-1.23.23-1.69.69M220.49,13.14l-5.97,2.41.22.78c.56-.22,1.06-.32,1.51-.32.37,0,.69.1.94.3.25.2.42.52.52.96.09.44.14,1.81.14,4.1v7.65c0,1.15-.04,1.85-.11,2.09-.14.5-.4.87-.75,1.1-.49.32-1.24.47-2.24.47v.78h10.1v-.78c-.89,0-1.57-.13-2.05-.39-.47-.26-.8-.58-.99-.97-.27-.56-.41-1.39-.41-2.48v-9.45c.69-1.35,1.36-2.32,2-2.91.3-.29.58-.43.84-.43.3,0,.76.25,1.39.74.62.5,1.19.74,1.69.74s.96-.19,1.34-.58c.37-.39.56-.86.56-1.42,0-.63-.26-1.19-.77-1.67-.52-.48-1.17-.72-1.96-.72-1.74,0-3.43,1.48-5.08,4.44v-4.44h-.9ZM191.48,6.51c1.65-.42,3.12-.62,4.41-.62,3.45,0,6.27,1.16,8.46,3.49,2.2,2.33,3.3,5.51,3.3,9.54s-1.1,7.18-3.3,9.52c-2.2,2.34-4.96,3.51-8.29,3.51-1.24,0-2.76-.2-4.59-.6V6.51ZM196.2,33.45c5.67,0,9.89-1.52,12.66-4.57,2.47-2.73,3.7-6.12,3.7-10.19,0-3.03-.69-5.7-2.08-8.01-1.39-2.31-3.22-3.96-5.49-4.95-2.28-.99-5.6-1.49-9.96-1.49h-11.89v.8h1.1c1.11,0,1.94.32,2.5.95.4.46.6,1.6.6,3.42v18.87c0,1.65-.16,2.71-.47,3.19-.52.79-1.39,1.18-2.63,1.18h-1.1v.8h13.05Z"/>
  </g>
</svg>